---
  volumedetect:
    "ffmpeg version 4.1.2 Copyright (c) 2000-2019 the FFmpeg developers\n  built with Apple LLVM version 10.0.0 (clang-1000.11.45.5)\n  configuration: --prefix=/usr/local/Cellar/ffmpeg/4.1.2 --enable-shared --enable-pthreads --enable-version3 --enable-hardcoded-tables --enable-avresample --cc=clang --host-cflags='-I/Library/Java/JavaVirtualMachines/openjdk-11.0.2.jdk/Contents/Home/include -I/Library/Java/JavaVirtualMachines/openjdk-11.0.2.jdk/Contents/Home/include/darwin' --host-ldflags= --enable-ffplay --enable-gnutls --enable-gpl --enable-libaom --enable-libbluray --enable-libmp3lame --enable-libopus --enable-librubberband --enable-libsnappy --enable-libtesseract --enable-libtheora --enable-libvorbis --enable-libvpx --enable-libx264 --enable-libx265 --enable-libxvid --enable-lzma --enable-libfontconfig --enable-libfreetype --enable-frei0r --enable-libass --enable-libopencore-amrnb --enable-libopencore-amrwb --enable-libopenjpeg --enable-librtmp --enable-libspeex --enable-videotoolbox --disable-libjack --disable-indev=jack --enable-libaom --enable-libsoxr\n  libavutil      56. 22.100 / 56. 22.100\n  libavcodec     58. 35.100 / 58. 35.100\n  libavformat    58. 20.100 / 58. 20.100\n  libavdevice    58.  5.100 / 58.  5.100\n  libavfilter     7. 40.101 /  7. 40.101\n  libavresample   4.  0.  0 /  4.  0.  0\n  libswscale      5.  3.100 /  5.  3.100\n  libswresample   3.  3.100 /  3.  3.100\n  libpostproc    55.  3.100 / 55.  3.100\n[hls,applehttp @ 0x7f81ce005800] Opening 'http://example.com/live/production/xxxxxxxxxxxxxx/w228061512.m3u8?ua=Integration+Tester' for reading\n[hls,applehttp @ 0x7f81ce005800] Opening 'http://example.com/live/production/xxxxxxxxxxxx/w228061512_339?ua=Integration+Tester' for reading\n[hls,applehttp @ 0x7f81ce005800] Opening 'http://example.com:443/live/production/xxxxxxxxxxxxxxxxxx/10.aac?ua=Integration+Tester' for reading\nInput #0, hls,applehttp, from 'http://example.com:443/live/production/xxxxxxxxxxxxxxx/playlist.m3u?ua=Integration%20Tester':\n  Duration: N/A, start: 40176.514144, bitrate: 28 kb/s\n  Program 0 \n    Metadata:\n      variant_bitrate : 30240\n    Stream #0:0: Audio: aac (HE-AACv2), 44100 Hz, stereo, fltp, 28 kb/s\n    Metadata:\n      variant_bitrate : 30240\n      id3v2_priv.com.apple.streaming.transportStreamTimestamp: \\x00\\x00\\x00\\x00\\xd7\\x86\\x0b\\xc1\nStream mapping:\n  Stream #0:0 -> #0:0 (aac (native) -> pcm_s16le (native))\nPress [q] to stop, [?] for help\nOutput #0, null, to '/dev/null':\n  Metadata:\n    encoder         : Lavf58.20.100\n    Stream #0:0: Audio: pcm_s16le, 44100 Hz, stereo, s16, 1411 kb/s\n    Metadata:\n      variant_bitrate : 30240\n      id3v2_priv.com.apple.streaming.transportStreamTimestamp: \\x00\\x00\\x00\\x00\\xd7\\x86\\x0b\\xc1\n      encoder         : Lavc58.35.100 pcm_s16le\n[http @ 0x7f81ce01b200] Opening 'http://example.com:443/live/production/xxxxxxexxxxxx/media.a?ua=Integration+Tester' for reading\nsize=N/A time=00:00:05.00 bitrate=N/A speed= 143x    \nvideo:0kB audio:861kB subtitle:0kB other streams:0kB global headers:0kB muxing overhead: unknown\n[Parsed_volumedetect_0 @ 0x7f81cd5b62c0] n_samples: 441000\n[Parsed_volumedetect_0 @ 0x7f81cd5b62c0] mean_volume: -16.6 dB\n[Parsed_volumedetect_0 @ 0x7f81cd5b62c0] max_volume: -2.4 dB\n[Parsed_volumedetect_0 @ 0x7f81cd5b62c0] histogram_2db: 10\n[Parsed_volumedetect_0 @ 0x7f81cd5b62c0] histogram_3db: 84\n[Parsed_volumedetect_0 @ 0x7f81cd5b62c0] histogram_4db: 386\n"
